<svg width="20" height="20" viewBox="0 0 20 20" fill="none" xmlns="http://www.w3.org/2000/svg">
<g clip-path="url(#clip0_2320_1739)">
<path d="M17.7 7.2908C18.075 7.2908 18.4187 7.44705 18.7312 7.75955C19.0437 8.07205 19.2 8.4158 19.2 8.7908V9.9783C19.2 10.0894 19.1895 10.1936 19.1687 10.2908C19.1479 10.388 19.1166 10.4783 19.075 10.5616L16.5958 16.3741C16.4708 16.6658 16.2381 16.895 15.8979 17.0616C15.5576 17.2283 15.2277 17.3116 14.9083 17.3116L5.69995 17.2908V7.2908L10.575 2.4158C10.8388 2.15191 11.1409 1.98177 11.4812 1.90538C11.8215 1.82899 12.127 1.86719 12.3979 2.01997C12.6687 2.17274 12.8423 2.41927 12.9187 2.75955C12.9951 3.09983 12.9916 3.47135 12.9083 3.87413L12.2 7.2908H17.7ZM7.19995 7.9158V15.7908H15.2L17.7 9.9783V8.7908H10.3666L11.3875 3.74913L7.19995 7.9158ZM2.69995 17.2908C2.2694 17.2908 1.91176 17.1439 1.62703 16.8502C1.34231 16.5564 1.19995 16.2033 1.19995 15.7908V8.7908C1.19995 8.3783 1.34231 8.02517 1.62703 7.73142C1.91176 7.43767 2.2694 7.2908 2.69995 7.2908H5.69995V8.7908H2.69995V15.7908H5.69995V17.2908H2.69995Z" fill="#0F1114"/>
</g>
<defs>
<clipPath id="clip0_2320_1739">
<rect width="20" height="20" fill="white"/>
</clipPath>
</defs>
</svg>
