<svg width="20" height="20" viewBox="0 0 20 20" fill="none" xmlns="http://www.w3.org/2000/svg">
<path d="M9.16646 18C8.93035 18 8.72896 17.9306 8.56229 17.7917C8.39563 17.6528 8.29146 17.4722 8.24979 17.25L7.93729 15.625C7.61785 15.5 7.30882 15.3542 7.01021 15.1875C6.7116 15.0208 6.43035 14.8264 6.16646 14.6042L4.60396 15.1458C4.39563 15.2153 4.18382 15.2118 3.96854 15.1354C3.75327 15.059 3.59007 14.9236 3.47896 14.7292L2.64563 13.2708C2.53452 13.0764 2.49979 12.8715 2.54146 12.6562C2.58313 12.441 2.68729 12.2569 2.85396 12.1042L4.08313 11.0208C4.05535 10.8542 4.03452 10.6875 4.02063 10.5208C4.00674 10.3542 3.99979 10.1806 3.99979 10C3.99979 9.81944 4.00674 9.64583 4.02063 9.47917C4.03452 9.3125 4.05535 9.14583 4.08313 8.97917L2.85396 7.89583C2.68729 7.74306 2.58313 7.55903 2.54146 7.34375C2.49979 7.12847 2.53452 6.92361 2.64563 6.72917L3.47896 5.27083C3.59007 5.07639 3.75327 4.94097 3.96854 4.86458C4.18382 4.78819 4.39563 4.78472 4.60396 4.85417L6.16646 5.39583C6.43035 5.17361 6.7116 4.97917 7.01021 4.8125C7.30882 4.64583 7.61785 4.5 7.93729 4.375L8.24979 2.75C8.29146 2.52778 8.39563 2.34722 8.56229 2.20833C8.72896 2.06944 8.93035 2 9.16646 2H10.8331C11.0692 2 11.2706 2.06944 11.4373 2.20833C11.604 2.34722 11.7081 2.52778 11.7498 2.75L12.0623 4.375C12.3817 4.5 12.6908 4.64583 12.9894 4.8125C13.288 4.97917 13.5692 5.17361 13.8331 5.39583L15.3956 4.85417C15.604 4.78472 15.8158 4.78819 16.031 4.86458C16.2463 4.94097 16.4095 5.07639 16.5206 5.27083L17.354 6.72917C17.4651 6.92361 17.4998 7.12847 17.4581 7.34375C17.4165 7.55903 17.3123 7.74306 17.1456 7.89583L15.9165 8.97917C15.9442 9.14583 15.9651 9.3125 15.979 9.47917C15.9928 9.64583 15.9998 9.81944 15.9998 10C15.9998 10.1806 15.9928 10.3542 15.979 10.5208C15.9651 10.6875 15.9442 10.8542 15.9165 11.0208L17.1456 12.1042C17.3123 12.2569 17.4165 12.441 17.4581 12.6562C17.4998 12.8715 17.4651 13.0764 17.354 13.2708L16.5206 14.7292C16.4095 14.9236 16.2463 15.059 16.031 15.1354C15.8158 15.2118 15.604 15.2153 15.3956 15.1458L13.8331 14.6042C13.5692 14.8264 13.288 15.0208 12.9894 15.1875C12.6908 15.3542 12.3817 15.5 12.0623 15.625L11.7498 17.25C11.7081 17.4722 11.604 17.6528 11.4373 17.7917C11.2706 17.9306 11.0692 18 10.8331 18H9.16646ZM9.62479 16.5H10.3748L10.7706 14.4375C11.2984 14.3403 11.7915 14.1597 12.2498 13.8958C12.7081 13.6319 13.104 13.2986 13.4373 12.8958L15.4373 13.5625L15.8123 12.9375L14.229 11.5417C14.3123 11.3056 14.3783 11.059 14.4269 10.8021C14.4755 10.5451 14.4998 10.2778 14.4998 10C14.4998 9.72222 14.4755 9.45486 14.4269 9.19792C14.3783 8.94097 14.3123 8.69444 14.229 8.45833L15.8123 7.0625L15.4373 6.4375L13.4373 7.10417C13.104 6.70139 12.7081 6.36806 12.2498 6.10417C11.7915 5.84028 11.2984 5.65972 10.7706 5.5625L10.3748 3.5H9.62479L9.22896 5.5625C8.70118 5.65972 8.20813 5.84028 7.74979 6.10417C7.29146 6.36806 6.89563 6.70139 6.56229 7.10417L4.56229 6.4375L4.18729 7.0625L5.77063 8.45833C5.68729 8.69444 5.62132 8.94097 5.57271 9.19792C5.5241 9.45486 5.49979 9.72222 5.49979 10C5.49979 10.2778 5.5241 10.5451 5.57271 10.8021C5.62132 11.059 5.68729 11.3056 5.77063 11.5417L4.18729 12.9375L4.56229 13.5625L6.56229 12.8958C6.89563 13.2986 7.29146 13.6319 7.74979 13.8958C8.20813 14.1597 8.70118 14.3403 9.22896 14.4375L9.62479 16.5ZM9.99979 13C10.8331 13 11.5415 12.7083 12.1248 12.125C12.7081 11.5417 12.9998 10.8333 12.9998 10C12.9998 9.16667 12.7081 8.45833 12.1248 7.875C11.5415 7.29167 10.8331 7 9.99979 7C9.16646 7 8.45813 7.29167 7.87479 7.875C7.29146 8.45833 6.99979 9.16667 6.99979 10C6.99979 10.8333 7.29146 11.5417 7.87479 12.125C8.45813 12.7083 9.16646 13 9.99979 13Z" fill="#0F1114"/>
</svg>
