<svg width="20" height="20" viewBox="0 0 20 20" fill="none" xmlns="http://www.w3.org/2000/svg">
<path d="M9.14865 10.875H3.875C3.62669 10.875 3.41882 10.7894 3.25139 10.6182C3.0838 10.447 3 10.242 3 10.0033C3 9.76462 3.0838 9.5625 3.25139 9.39696C3.41882 9.23142 3.62669 9.14865 3.875 9.14865H9.14865V3.875C9.14865 3.63536 9.23268 3.42962 9.40074 3.25777C9.56881 3.08592 9.76982 3 10.0038 3C10.2377 3 10.4414 3.08592 10.6149 3.25777C10.7883 3.42962 10.875 3.63536 10.875 3.875V9.14865H16.1486C16.3817 9.14865 16.5818 9.23284 16.7491 9.40122C16.9164 9.56944 17 9.77289 17 10.0116C17 10.2503 16.9164 10.4539 16.7491 10.6224C16.5818 10.7908 16.3817 10.875 16.1486 10.875H10.875V16.1486C10.875 16.3815 10.7887 16.5817 10.616 16.7491C10.4434 16.9164 10.2366 17 9.99574 17C9.76178 17 9.56211 16.9164 9.39672 16.7491C9.23134 16.5817 9.14865 16.3815 9.14865 16.1486V10.875Z" fill="#1E2229"/>
</svg>
