<svg width="20" height="20" viewBox="0 0 20 20" fill="none" xmlns="http://www.w3.org/2000/svg">
<path d="M9.25 9.25V11.25C9.25 11.4625 9.32146 11.6406 9.46438 11.7844C9.60729 11.9281 9.78438 12 9.99563 12C10.2069 12 10.3854 11.9281 10.5312 11.7844C10.6771 11.6406 10.75 11.4625 10.75 11.25V9.25H12.75C12.9625 9.25 13.1406 9.17854 13.2844 9.03563C13.4281 8.89271 13.5 8.71563 13.5 8.50438C13.5 8.29313 13.4281 8.11458 13.2844 7.96875C13.1406 7.82292 12.9625 7.75 12.75 7.75H10.75V5.75C10.75 5.5375 10.6785 5.35937 10.5356 5.21562C10.3927 5.07187 10.2156 5 10.0044 5C9.79313 5 9.61458 5.07187 9.46875 5.21562C9.32292 5.35937 9.25 5.5375 9.25 5.75V7.75H7.25C7.0375 7.75 6.85938 7.82146 6.71563 7.96437C6.57188 8.10729 6.5 8.28437 6.5 8.49562C6.5 8.70687 6.57188 8.88542 6.71563 9.03125C6.85938 9.17708 7.0375 9.25 7.25 9.25H9.25ZM5 15L3.27333 16.7267C3.03556 16.9644 2.76389 17.018 2.45833 16.8873C2.15278 16.7567 2 16.5235 2 16.1875V3.5C2 3.0875 2.14688 2.73438 2.44063 2.44063C2.73438 2.14688 3.0875 2 3.5 2H16.5C16.9125 2 17.2656 2.14688 17.5594 2.44063C17.8531 2.73438 18 3.0875 18 3.5V13.5C18 13.9125 17.8531 14.2656 17.5594 14.5594C17.2656 14.8531 16.9125 15 16.5 15H5ZM4.375 13.5H16.5V3.5H3.5V14.375L4.375 13.5Z" fill="#0F1114"/>
</svg>
