<svg width="20" height="20" viewBox="0 0 20 20" fill="none" xmlns="http://www.w3.org/2000/svg">
<path d="M9.98574 12.0833C9.2913 12.0833 8.70102 11.8402 8.21491 11.3541C7.7288 10.868 7.48574 10.2777 7.48574 9.58325V4.58325C7.48574 3.88881 7.7288 3.29853 8.21491 2.81242C8.70102 2.32631 9.2913 2.08325 9.98574 2.08325C10.6802 2.08325 11.2705 2.32631 11.7566 2.81242C12.2427 3.29853 12.4857 3.88881 12.4857 4.58325V9.58325C12.4857 10.2777 12.2427 10.868 11.7566 11.3541C11.2705 11.8402 10.6802 12.0833 9.98574 12.0833ZM9.15241 17.0833V15.3541C7.87463 15.1735 6.78088 14.6319 5.87116 13.7291C4.96143 12.8263 4.40935 11.7291 4.21491 10.4374C4.18713 10.2013 4.24963 9.99992 4.40241 9.83325C4.55518 9.66658 4.74963 9.58325 4.98574 9.58325C5.22185 9.58325 5.41977 9.66311 5.57949 9.82283C5.73921 9.98256 5.84685 10.1805 5.90241 10.4166C6.09685 11.3888 6.57949 12.1874 7.35032 12.8124C8.12116 13.4374 8.99963 13.7499 9.98574 13.7499C10.9857 13.7499 11.8677 13.4339 12.6316 12.802C13.3955 12.1701 13.8746 11.3749 14.0691 10.4166C14.1246 10.1805 14.2323 9.98256 14.392 9.82283C14.5517 9.66311 14.7496 9.58325 14.9857 9.58325C15.2219 9.58325 15.4163 9.66658 15.5691 9.83325C15.7219 9.99992 15.7844 10.2013 15.7566 10.4374C15.5621 11.7013 15.0135 12.7916 14.1107 13.7083C13.208 14.6249 12.1107 15.1735 10.8191 15.3541V17.0833C10.8191 17.3194 10.7392 17.5173 10.5795 17.677C10.4198 17.8367 10.2219 17.9166 9.98574 17.9166C9.74963 17.9166 9.55171 17.8367 9.39199 17.677C9.23227 17.5173 9.15241 17.3194 9.15241 17.0833ZM9.98574 10.4166C10.2219 10.4166 10.4198 10.3367 10.5795 10.177C10.7392 10.0173 10.8191 9.81936 10.8191 9.58325V4.58325C10.8191 4.34714 10.7392 4.14922 10.5795 3.9895C10.4198 3.82978 10.2219 3.74992 9.98574 3.74992C9.74963 3.74992 9.55171 3.82978 9.39199 3.9895C9.23227 4.14922 9.15241 4.34714 9.15241 4.58325V9.58325C9.15241 9.81936 9.23227 10.0173 9.39199 10.177C9.55171 10.3367 9.74963 10.4166 9.98574 10.4166Z" fill="#0F1114"/>
</svg>
