<svg width="20" height="20" viewBox="0 0 20 20" fill="none" xmlns="http://www.w3.org/2000/svg">
<path d="M9.99967 11.1673L5.91634 15.2507C5.76356 15.4034 5.56912 15.4798 5.33301 15.4798C5.0969 15.4798 4.90245 15.4034 4.74967 15.2507C4.5969 15.0979 4.52051 14.9034 4.52051 14.6673C4.52051 14.4312 4.5969 14.2368 4.74967 14.084L8.83301 10.0007L4.74967 5.91732C4.5969 5.76454 4.52051 5.5701 4.52051 5.33398C4.52051 5.09787 4.5969 4.90343 4.74967 4.75065C4.90245 4.59787 5.0969 4.52148 5.33301 4.52148C5.56912 4.52148 5.76356 4.59787 5.91634 4.75065L9.99967 8.83398L14.083 4.75065C14.2358 4.59787 14.4302 4.52148 14.6663 4.52148C14.9025 4.52148 15.0969 4.59787 15.2497 4.75065C15.4025 4.90343 15.4788 5.09787 15.4788 5.33398C15.4788 5.5701 15.4025 5.76454 15.2497 5.91732L11.1663 10.0007L15.2497 14.084C15.4025 14.2368 15.4788 14.4312 15.4788 14.6673C15.4788 14.9034 15.4025 15.0979 15.2497 15.2507C15.0969 15.4034 14.9025 15.4798 14.6663 15.4798C14.4302 15.4798 14.2358 15.4034 14.083 15.2507L9.99967 11.1673Z" fill="#0F1114"/>
</svg>
