<svg width="20" height="20" viewBox="0 0 20 20" fill="none" xmlns="http://www.w3.org/2000/svg">
<g clip-path="url(#clip0_2320_1744)">
<path d="M2.69995 13.5951C2.32495 13.5951 1.9812 13.4388 1.6687 13.1263C1.3562 12.8138 1.19995 12.4701 1.19995 12.0951V10.9076C1.19995 10.7964 1.21037 10.6923 1.2312 10.5951C1.25203 10.4978 1.28328 10.4076 1.32495 10.3242L3.80412 4.51172C3.92912 4.22005 4.16176 3.99089 4.50203 3.82422C4.84231 3.65755 5.17217 3.57422 5.49162 3.57422L14.7 3.59505V13.5951L9.82495 18.4701C9.56106 18.7339 9.25898 18.9041 8.9187 18.9805C8.57842 19.0569 8.27287 19.0187 8.00203 18.8659C7.7312 18.7131 7.55759 18.4666 7.4812 18.1263C7.40481 17.786 7.40828 17.4145 7.49162 17.0117L8.19995 13.5951H2.69995ZM13.2 12.9701V5.09505H5.19995L2.69995 10.9076V12.0951H10.0333L9.01245 17.1367L13.2 12.9701ZM17.7 3.59505C18.1305 3.59505 18.4881 3.74193 18.7729 4.03568C19.0576 4.32943 19.2 4.68255 19.2 5.09505V12.0951C19.2 12.5076 19.0576 12.8607 18.7729 13.1544C18.4881 13.4482 18.1305 13.5951 17.7 13.5951H14.7V12.0951H17.7V5.09505H14.7V3.59505H17.7Z" fill="#0F1114"/>
</g>
<defs>
<clipPath id="clip0_2320_1744">
<rect width="20" height="20" fill="white"/>
</clipPath>
</defs>
</svg>
