<svg width="16" height="16" viewBox="0 0 16 16" fill="none" xmlns="http://www.w3.org/2000/svg">
<path d="M8.0002 12.8C6.66686 12.8 5.53353 12.3333 4.6002 11.4C3.66686 10.4666 3.2002 9.33328 3.2002 7.99995C3.2002 6.66662 3.66686 5.53328 4.6002 4.59995C5.53353 3.66662 6.66686 3.19995 8.0002 3.19995C8.72242 3.19995 9.39186 3.34995 10.0085 3.64995C10.6252 3.94995 11.1558 4.34995 11.6002 4.84995V3.79995C11.6002 3.62995 11.6574 3.48745 11.7717 3.37245C11.886 3.25745 12.0277 3.19995 12.1967 3.19995C12.3657 3.19995 12.5085 3.25745 12.6252 3.37245C12.7419 3.48745 12.8002 3.62995 12.8002 3.79995V6.59995C12.8002 6.76995 12.7427 6.91245 12.6277 7.02745C12.5127 7.14245 12.3702 7.19995 12.2002 7.19995H9.4002C9.2302 7.19995 9.0877 7.14278 8.9727 7.02845C8.8577 6.91412 8.8002 6.77245 8.8002 6.60345C8.8002 6.43445 8.8577 6.29162 8.9727 6.17495C9.0877 6.05828 9.2302 5.99995 9.4002 5.99995H10.9835C10.6613 5.51106 10.2391 5.12217 9.71686 4.83328C9.19464 4.5444 8.62242 4.39995 8.0002 4.39995C7.0002 4.39995 6.1502 4.74995 5.4502 5.44995C4.7502 6.14995 4.4002 6.99995 4.4002 7.99995C4.4002 8.99995 4.7502 9.84995 5.4502 10.55C6.1502 11.25 7.0002 11.6 8.0002 11.6C8.83353 11.6 9.56686 11.3472 10.2002 10.8416C10.8335 10.3361 11.2502 9.69995 11.4502 8.93328C11.4946 8.77773 11.5863 8.65551 11.7252 8.56662C11.8641 8.47773 12.0115 8.4444 12.1674 8.46662C12.3337 8.48884 12.4669 8.56384 12.5669 8.69162C12.6669 8.8194 12.7002 8.96106 12.6669 9.11662C12.4113 10.1833 11.8558 11.0638 11.0002 11.7583C10.1446 12.4527 9.14464 12.8 8.0002 12.8Z" fill="#5B6780"/>
</svg>
