<svg width="20" height="20" viewBox="0 0 20 20" fill="none" xmlns="http://www.w3.org/2000/svg">
<path d="M10.8 16.8008C9.13338 16.8008 7.71672 16.2174 6.55005 15.0508C5.38338 13.8841 4.80005 12.4674 4.80005 10.8008C4.80005 9.13411 5.38338 7.71745 6.55005 6.55078C7.71672 5.38411 9.13338 4.80078 10.8 4.80078C11.7028 4.80078 12.5396 4.98828 13.3105 5.36328C14.0813 5.73828 14.7445 6.23828 15.3 6.86328V5.55078C15.3 5.33828 15.3715 5.16016 15.5144 5.01641C15.6573 4.87266 15.8344 4.80078 16.0457 4.80078C16.2569 4.80078 16.4355 4.87266 16.5813 5.01641C16.7271 5.16016 16.8 5.33828 16.8 5.55078V9.05078C16.8 9.26328 16.7282 9.44141 16.5844 9.58516C16.4407 9.72891 16.2625 9.80078 16.05 9.80078H12.55C12.3375 9.80078 12.1594 9.72932 12.0157 9.58641C11.8719 9.44349 11.8 9.26641 11.8 9.05516C11.8 8.84391 11.8719 8.66536 12.0157 8.51953C12.1594 8.3737 12.3375 8.30078 12.55 8.30078H14.5292C14.1264 7.68967 13.5987 7.20356 12.9459 6.84245C12.2931 6.48134 11.5778 6.30078 10.8 6.30078C9.55005 6.30078 8.48755 6.73828 7.61255 7.61328C6.73755 8.48828 6.30005 9.55078 6.30005 10.8008C6.30005 12.0508 6.73755 13.1133 7.61255 13.9883C8.48755 14.8633 9.55005 15.3008 10.8 15.3008C11.8417 15.3008 12.7584 14.9848 13.55 14.3529C14.3417 13.7209 14.8625 12.9258 15.1125 11.9674C15.1681 11.773 15.2827 11.6202 15.4563 11.5091C15.6299 11.398 15.8141 11.3563 16.009 11.3841C16.2169 11.4119 16.3834 11.5056 16.5084 11.6654C16.6334 11.8251 16.675 12.0022 16.6334 12.1966C16.3139 13.5299 15.6195 14.6306 14.55 15.4987C13.4806 16.3668 12.2306 16.8008 10.8 16.8008Z" fill="#5B6780"/>
</svg>
