<svg width="20" height="20" viewBox="0 0 20 20" fill="none" xmlns="http://www.w3.org/2000/svg">
<path d="M8.53118 2.0937C8.7636 1.52443 9.56973 1.52443 9.80216 2.09371L11.0615 5.17825C11.7588 6.88604 13.114 8.24131 14.8218 8.93857L17.9064 10.1979C18.4757 10.4304 18.4757 11.2365 17.9064 11.4689L14.8218 12.7283C13.114 13.4255 11.7588 14.7808 11.0615 16.4886L9.80216 19.5731C9.56973 20.1424 8.7636 20.1424 8.53118 19.5731L7.27182 16.4886C6.57457 14.7808 5.21929 13.4255 3.5115 12.7283L0.426956 11.4689C-0.14232 11.2365 -0.142318 10.4304 0.426958 10.1979L3.5115 8.93857C5.21929 8.24131 6.57457 6.88604 7.27182 5.17825L8.53118 2.0937Z" fill="url(#paint0_radial_2320_19561)"/>
<path d="M16.2974 0.248176C16.4325 -0.0827252 16.9011 -0.0827257 17.0362 0.248176L17.6123 1.65925C17.7474 1.99014 18.01 2.25273 18.3409 2.38783L19.752 2.96394C20.0829 3.09904 20.0829 3.56762 19.752 3.70272L18.3409 4.27883C18.01 4.41393 17.7474 4.67652 17.6123 5.00742L17.0362 6.41849C16.9011 6.74939 16.4325 6.74939 16.2974 6.41849L15.7213 5.00742C15.5862 4.67653 15.3236 4.41393 14.9927 4.27883L13.5817 3.70272C13.2508 3.56762 13.2508 3.09904 13.5817 2.96394L14.9927 2.38783C15.3236 2.25273 15.5862 1.99014 15.7213 1.65925L16.2974 0.248176Z" fill="url(#paint1_radial_2320_19561)"/>
<defs>
<radialGradient id="paint0_radial_2320_19561" cx="0" cy="0" r="1" gradientUnits="userSpaceOnUse" gradientTransform="translate(-0.429689 1.23706) rotate(45) scale(26.5349 24.1437)">
<stop stop-color="#6923DE"/>
<stop offset="1" stop-color="#3286FF"/>
</radialGradient>
<radialGradient id="paint1_radial_2320_19561" cx="0" cy="0" r="1" gradientUnits="userSpaceOnUse" gradientTransform="translate(13.1772 -0.15625) rotate(45) scale(9.64906 8.77953)">
<stop stop-color="#6923DE"/>
<stop offset="1" stop-color="#3286FF"/>
</radialGradient>
</defs>
</svg>
